<?xml version="1.0" encoding="UTF-8"?>
<!-- Generator: visioncortex VTracer 0.6.12 -->
<svg version="1.1" xmlns="http://www.w3.org/2000/svg" viewBox="0 0 487 512" width="487" height="512" role="img" aria-label="UDAAN logo">
<path d="M0,0 L4,1 L5,16 L5,45 L14,46 L20,50 L23,52 L23,54 L26,55 L49,55 L59,56 L59,50 L53,52 L46,52 L28,44 L28,42 L23,41 L21,37 L22,36 L30,37 L54,42 L73,46 L87,49 L97,51 L98,55 L136,56 L149,57 L150,64 L149,66 L131,67 L134,75 L137,85 L140,95 L140,102 L135,102 L131,95 L127,86 L119,69 L90,69 L68,71 L67,74 L60,74 L60,70 L38,71 L33,72 L32,84 L29,90 L21,100 L16,105 L11,109 L5,111 L-2,111 L-10,107 L-15,102 L-15,100 L-17,100 L-26,89 L-29,80 L-30,72 L-39,71 L-55,71 L-57,74 L-62,74 L-64,70 L-93,69 L-116,68 L-119,77 L-126,92 L-130,101 L-135,102 L-136,101 L-136,95 L-131,80 L-127,67 L-145,66 L-147,61 L-144,56 L-95,55 L-94,52 L-90,50 L-76,47 L-65,45 L-42,40 L-26,37 L-18,36 L-19,41 L-24,42 L-24,44 L-36,49 L-42,52 L-49,52 L-55,50 L-53,55 L-24,55 L-17,51 L-12,46 L-2,44 L-1,3 Z M70,52 L70,56 L83,56 L80,54 Z M-66,52 L-79,55 L-79,56 L-66,56 L-65,52 Z M-55,55 Z M118,67 Z " fill="#142C8D" transform="translate(230,100)"/>
<path d="M0,0 L4,1 L6,2 L6,4 L10,6 L14,10 L14,12 L18,14 L18,16 L22,18 L26,22 L25,26 L15,36 L10,41 L6,46 L3,46 L2,50 L-2,54 L-4,54 L-4,56 L-6,56 L-6,58 L-10,62 L-12,62 L-12,64 L-14,64 L-14,66 L-20,71 L-22,74 L-24,74 L-26,78 L-28,78 L-30,82 L-41,93 L-46,98 L-49,102 L-51,102 L-51,104 L-53,104 L-53,106 L-60,112 L-61,114 L-63,114 L-63,116 L-65,117 L-89,117 L-88,113 L-82,106 L-77,101 L-75,101 L-74,98 L-72,98 L-70,94 L-68,94 L-68,92 L-66,92 L-66,90 L-61,85 L-24,48 L-19,42 L-20,38 L-23,37 L-33,46 L-40,54 L-42,54 L-42,56 L-49,62 L-52,66 L-54,66 L-56,70 L-58,70 L-60,74 L-62,74 L-64,78 L-66,78 L-66,81 L-74,88 L-103,117 L-126,117 L-126,113 L-115,102 L-114,100 L-112,100 L-112,98 L-110,98 L-108,94 L-90,76 L-85,70 L-80,65 L-78,65 L-76,61 L-63,48 L-58,42 L-51,36 L-45,29 L-43,29 L-41,25 L-38,22 L-33,23 L-29,27 L-25,25 L-22,22 L-20,22 L-18,18 L-16,18 L-14,14 L-12,14 L-10,10 L-8,10 L-6,6 L-4,6 L-2,2 Z M0,10 L-10,20 L-9,24 L-4,21 L6,22 L6,24 L11,26 L9,22 L4,13 Z " fill="#E22830" transform="translate(262,218)"/>
<path d="M0,0 L4,2 L6,6 L10,8 L10,10 L14,12 L14,14 L18,16 L18,18 L22,19 L21,24 L16,30 L12,34 L10,34 L10,36 L8,36 L8,38 L6,38 L6,40 L4,40 L4,42 L2,42 L2,44 L0,44 L0,46 L-2,46 L-4,50 L-6,50 L-8,54 L-10,54 L-12,58 L-14,58 L-16,62 L-18,62 L-20,66 L-22,66 L-24,70 L-26,70 L-28,74 L-39,85 L-43,89 L-45,92 L-50,96 L-52,99 L-54,99 L-55,102 L-61,107 L-67,114 L-70,117 L-72,119 L-73,121 L-116,121 L-115,117 L-111,113 L-109,113 L-109,111 L-107,111 L-106,108 L-104,108 L-103,105 L-101,105 L-101,103 L-99,103 L-98,100 L-96,100 L-94,96 L-72,74 L-71,72 L-69,72 L-69,70 L-67,70 L-65,66 L-63,66 L-61,62 L-59,62 L-59,60 L-57,60 L-57,58 L-55,58 L-55,56 L-53,56 L-53,54 L-51,54 L-49,50 L-27,28 L-22,22 L-18,18 L-16,18 L-14,14 Z " fill="#11298E" transform="translate(199,214)"/>
<path d="M0,0 L4,2 L10,7 L10,9 L14,11 L13,15 L9,19 L7,19 L5,24 L3,24 L1,29 L-5,31 L-7,35 L-11,39 L-13,39 L-15,43 L-22,51 L-29,57 L-34,63 L-41,69 L-48,77 L-53,83 L-57,87 L-59,87 L-59,89 L-62,90 L-86,89 L-84,85 L-76,78 L-70,71 L-63,65 L-58,59 L-51,53 L-46,47 L-44,47 L-44,45 L-42,45 L-42,43 L-40,43 L-40,41 L-38,41 L-38,39 L-36,39 L-35,35 L-32,35 L-31,31 L-28,31 L-28,29 L-26,29 L-24,25 L-6,7 L-4,7 L-2,3 L0,3 Z " fill="#152C8D" transform="translate(290,245)"/>
<path d="M0,0 L4,2 L4,59 L-9,59 L-15,52 L-21,43 L-21,41 L-23,41 L-28,33 L-31,31 L-32,28 L-33,59 L-47,59 L-47,1 L-34,1 L-28,9 L-28,11 L-25,12 L-24,17 L-22,17 L-20,20 L-20,23 L-17,24 L-12,32 L-12,34 L-10,34 L-11,31 L-10,1 L-1,1 Z " fill="#162E8C" transform="translate(371,347)"/>
<path d="M0,0 L26,0 L33,2 L41,8 L41,10 L43,10 L47,16 L49,23 L49,37 L45,47 L41,52 L35,56 L28,58 L-1,58 L-1,1 Z M13,12 L13,46 L25,46 L32,42 L36,33 L35,23 L34,20 L32,20 L30,16 L21,12 Z " fill="#142B8B" transform="translate(144,348)"/>
<path d="M0,0 L5,2 L15,12 L13,16 L8,22 L1,28 L0,30 L-2,30 L-4,34 L-8,38 L-10,38 L-12,42 L-17,47 L-23,54 L-27,58 L-29,58 L-31,62 L-35,64 L-36,67 L-38,67 L-40,71 L-43,73 L-66,73 L-67,69 L-59,62 L-54,57 L-48,50 L-41,44 L-35,37 L-33,37 L-31,33 L-29,33 L-28,30 L-24,26 L-22,26 L-20,22 L-17,21 L-15,17 L-13,17 L-11,13 L-1,3 Z " fill="#E12A32" transform="translate(307,262)"/>
<path d="M0,0 L2,1 L13,1 L18,12 L26,31 L30,43 L33,48 L36,57 L36,59 L22,59 L20,56 L18,47 L-5,47 L-8,57 L-9,59 L-24,59 L-25,56 L-23,55 L-17,41 L-12,28 L-5,12 L-1,2 Z M6,20 L1,33 L1,35 L11,35 L12,32 L7,20 Z " fill="#142C8B" transform="translate(282,347)"/>
<path d="M0,0 L7,0 L11,1 L15,8 L20,22 L24,30 L28,41 L33,53 L33,55 L35,56 L35,59 L21,59 L16,49 L16,47 L-7,47 L-10,57 L-11,59 L-25,59 L-22,48 L-16,35 L-10,19 L-5,7 L-5,5 L-3,5 L-2,1 Z M4,21 L-1,32 L-1,35 L11,35 L6,22 Z " fill="#162D8C" transform="translate(222,347)"/>
<path d="M0,0 L8,1 L13,1 L13,43 L11,50 L10,53 L8,53 L8,55 L6,55 L6,57 L-1,60 L-15,60 L-23,57 L-27,53 L-30,43 L-30,2 L-27,1 L-17,1 L-16,2 L-15,42 L-12,46 L-7,47 L-3,47 L-1,36 L-1,3 Z M-16,43 Z " fill="#1C3291" transform="translate(119,347)"/>
<path d="M0,0 L4,5 L10,10 L12,15 L7,20 L3,25 L-4,31 L-9,37 L-16,43 L-23,51 L-25,54 L-27,55 L-52,56 L-53,53 L-51,51 L-46,46 L-41,41 L-36,36 L-34,36 L-32,32 L-30,32 L-28,28 L-26,28 L-24,24 L-22,24 L-20,20 L-16,16 L-14,16 L-12,12 L-8,8 L-6,8 L-4,4 Z " fill="#142B8B" transform="translate(328,279)"/>
<path d="M0,0 L3,0 L7,4 L7,6 L9,6 L9,8 L11,8 L11,10 L13,10 L14,14 L9,19 L3,26 L-3,31 L-8,36 L-9,37 L-33,37 L-34,35 L-32,32 L-30,32 L-29,29 L-23,24 L-22,22 L-20,22 L-20,20 L-18,20 L-17,17 L-12,12 L-10,12 L-8,8 L-6,8 L-4,4 Z " fill="#DF2D35" transform="translate(344,298)"/>
<path d="M0,0 L4,0 L5,5 L7,5 L7,7 L9,7 L9,9 L11,9 L11,11 L13,11 L13,13 L15,13 L15,15 L17,15 L17,17 L19,17 L20,20 L17,21 L9,20 L-17,19 L-14,15 L-9,9 L-3,4 Z " fill="#192C84" transform="translate(362,315)"/>
<path d="M0,0 L4,0 L4,2 L-1,5 L-6,10 L-8,10 L-9,14 L-14,19 L-17,20 L-19,24 L-22,24 L-20,20 L-13,14 L-7,7 L-5,7 L-3,3 Z " fill="#CA4B55" transform="translate(224,240)"/>
</svg>
